<svg xmlns="http://www.w3.org/2000/svg" width="160" height="160" viewBox="0 0 160 160">
  <ellipse cx="80" cy="144" rx="42" ry="7" fill="#E5E7EB"/>
  <path d="M40 42c0-10 10-18 22-18 3-10 14-16 25-16s22 6 25 16c12 0 22 8 22 18 0 12-10 20-24 20H64c-14 0-24-8-24-20z" fill="#FFFFFF" stroke="#2D2D2D" stroke-width="3"/>
  <rect x="50" y="36" width="52" height="14" rx="7" fill="#F4F5F7" stroke="#2D2D2D" stroke-width="3"/>
  <circle cx="72" cy="66" r="20" fill="#F7C9A9" stroke="#2D2D2D" stroke-width="3"/>
  <circle cx="64" cy="64" r="3" fill="#2D2D2D"/>
  <circle cx="80" cy="64" r="3" fill="#2D2D2D"/>
  <path d="M64 74c6 4 10 4 16 0" stroke="#2D2D2D" stroke-width="3" stroke-linecap="round"/>
  <rect x="44" y="86" width="56" height="44" rx="14" fill="#FFFFFF" stroke="#2D2D2D" stroke-width="3"/>
  <rect x="52" y="96" width="40" height="26" rx="10" fill="#63BFAF" stroke="#2D2D2D" stroke-width="3"/>
  <path d="M98 52c8-4 18-2 24 6 4 6 2 14-4 18" fill="none" stroke="#2D2D2D" stroke-width="3" stroke-linecap="round"/>
  <ellipse cx="118" cy="58" rx="14" ry="10" fill="#F6C453" stroke="#2D2D2D" stroke-width="3"/>
  <path d="M112 66l-8 10" stroke="#E07A5F" stroke-width="3" stroke-linecap="round"/>
</svg>
