<svg xmlns="http://www.w3.org/2000/svg" width="160" height="160" viewBox="0 0 160 160">
  <ellipse cx="80" cy="144" rx="42" ry="7" fill="#E5E7EB"/>
  <path d="M40 42c0-10 10-18 22-18 3-10 14-16 25-16s22 6 25 16c12 0 22 8 22 18 0 12-10 20-24 20H64c-14 0-24-8-24-20z" fill="#FFFFFF" stroke="#2D2D2D" stroke-width="3"/>
  <rect x="50" y="36" width="52" height="14" rx="7" fill="#F4F5F7" stroke="#2D2D2D" stroke-width="3"/>
  <circle cx="72" cy="66" r="20" fill="#F7C9A9" stroke="#2D2D2D" stroke-width="3"/>
  <circle cx="64" cy="64" r="3" fill="#2D2D2D"/>
  <circle cx="80" cy="64" r="3" fill="#2D2D2D"/>
  <path d="M62 62c2-4 8-4 10 0" stroke="#2D2D2D" stroke-width="2" stroke-linecap="round"/>
  <path d="M64 76c6 5 10 5 16 0" stroke="#2D2D2D" stroke-width="3" stroke-linecap="round"/>
  <rect x="44" y="90" width="56" height="44" rx="14" fill="#FFFFFF" stroke="#2D2D2D" stroke-width="3"/>
  <rect x="52" y="100" width="40" height="26" rx="10" fill="#A7F3D0" stroke="#2D2D2D" stroke-width="3"/>
  <path d="M60 108h24" stroke="#2D2D2D" stroke-width="2" stroke-linecap="round"/>
  <path d="M60 114h18" stroke="#2D2D2D" stroke-width="2" stroke-linecap="round"/>
</svg>
