<svg xmlns="http://www.w3.org/2000/svg" width="160" height="160" viewBox="0 0 160 160">
  <ellipse cx="86" cy="144" rx="42" ry="7" fill="#E5E7EB"/>
  <path d="M40 42c0-10 10-18 22-18 3-10 14-16 25-16s22 6 25 16c12 0 22 8 22 18 0 12-10 20-24 20H64c-14 0-24-8-24-20z" fill="#FFFFFF" stroke="#2D2D2D" stroke-width="3"/>
  <rect x="50" y="36" width="52" height="14" rx="7" fill="#F4F5F7" stroke="#2D2D2D" stroke-width="3"/>
  <circle cx="72" cy="66" r="20" fill="#F7C9A9" stroke="#2D2D2D" stroke-width="3"/>
  <circle cx="64" cy="64" r="3" fill="#2D2D2D"/>
  <circle cx="80" cy="64" r="3" fill="#2D2D2D"/>
  <path d="M62 58c2-4 8-4 10 0" stroke="#2D2D2D" stroke-width="2" stroke-linecap="round"/>
  <path d="M64 74c6 5 10 5 16 0" stroke="#2D2D2D" stroke-width="3" stroke-linecap="round"/>
  <rect x="44" y="86" width="56" height="48" rx="14" fill="#FFFFFF" stroke="#2D2D2D" stroke-width="3"/>
  <rect x="52" y="96" width="40" height="28" rx="10" fill="#63BFAF" stroke="#2D2D2D" stroke-width="3"/>
  <path d="M58 96l-10 8" stroke="#2D2D2D" stroke-width="3" stroke-linecap="round"/>
  <path d="M90 96l10 8" stroke="#2D2D2D" stroke-width="3" stroke-linecap="round"/>
  <rect x="96" y="94" width="50" height="26" rx="8" fill="#FFFFFF" stroke="#2D2D2D" stroke-width="3"/>
  <rect x="102" y="100" width="8" height="6" rx="2" fill="#2D2D2D"/>
  <rect x="114" y="100" width="8" height="6" rx="2" fill="#2D2D2D"/>
  <rect x="126" y="100" width="8" height="6" rx="2" fill="#2D2D2D"/>
  <rect x="102" y="110" width="12" height="6" rx="2" fill="#2D2D2D"/>
  <rect x="118" y="110" width="12" height="6" rx="2" fill="#2D2D2D"/>
  <path d="M106 84v-10" stroke="#F6C453" stroke-width="3" stroke-linecap="round"/>
  <path d="M120 84v-10" stroke="#F6C453" stroke-width="3" stroke-linecap="round"/>
</svg>
